# xmcd
#
# Track frame offsets:
# 150
# 10381
# 45557
# 60510
# 93129
# 111475
# 164381
# 179798
# 194269
#
# Disc length: 3245 seconds
#
# Revision: 0
# Processed by: cddbd v1.5.2PL0 Copyright (c) Steve Scherf et al.
# Submitted via: Audion 3.0.2 (http://www.panic.com/audion/)
#
DISCID=760cab09
DTITLE=The Doors - The Doors Best Of
DYEAR=1900
DGENRE=
TTITLE0=yvdav
TTITLE1=yxcvcxyvcv
TTITLE2=nghmjm,
TTITLE3=mnb,bmn,
TTITLE4=bnm,m
TTITLE5=ghjkhjgk
TTITLE6=gjhkjgh
TTITLE7=utitzui
TTITLE8=ertttetz
EXTD=
EXTT0=
EXTT1=
EXTT2=
EXTT3=
EXTT4=
EXTT5=
EXTT6=
EXTT7=
EXTT8=
PLAYORDER=
